# xmcd
#
# Track frame offsets: 
#        150
#        12401
#        25481
#        39562
#        51596
#        67603
#        80019
#        102574
#        113681
#        129045
#        148367
#        168567
#        192228
#        208321
#        219720
#        241712
#        268675
#        286106
#
# Disc length: 4006 seconds
#
# Revision: 0
# Processed by: cddbd v1.5.2PL0 Copyright (c) Steve Scherf et al.
# Submitted via: ExactAudioCopy v0.99pb3
#
DISCID=0f0fa412
DTITLE=Etta James - 18 Greatest
DYEAR=2007
DGENRE=Blues
TTITLE0=The Wallflower(Roll With Me Henry) 
TTITLE1=At Last
TTITLE2=All I Could Do Was Cry
TTITLE3=Something's Got A Hold On Me
TTITLE4=Trust In Me
TTITLE5=Pushover
TTITLE6=Respect Yourself(Live)
TTITLE7=Hard To Handle(Live)
TTITLE8=Rock Me Baby(Live)
TTITLE9=Shake Ya Bootie(Live)
TTITLE10=Drown In My Own Tears(Live)
TTITLE11=Stormy Monday(Live)
TTITLE12=Summer Heat(Live)
TTITLE13=Tell Mama
TTITLE14=I'd Rather Go Blind(Live)
TTITLE15=Baby What You Want Me To Do(Live)
TTITLE16=Blowin' In The Wind
TTITLE17=Down By The Riverside
EXTD=
EXTT0=
EXTT1=
EXTT2=
EXTT3=
EXTT4=
EXTT5=
EXTT6=
EXTT7=
EXTT8=
EXTT9=
EXTT10=
EXTT11=
EXTT12=
EXTT13=
EXTT14=
EXTT15=
EXTT16=
EXTT17=
PLAYORDER=
